<svg version="1.0" xmlns="http://www.w3.org/2000/svg"
 width="64px" height="64px" viewBox="0 0 814.000000 545.000000"
 preserveAspectRatio="xMidYMid meet">
    <g transform="translate(0.000000,545.000000) scale(0.100000,-0.100000)"
       fill="#000000" stroke="none">
        <path d="M3753 4628 c-153 -161 -239 -409 -204 -589 29 -143 78 -215 320 -464
        294 -303 403 -457 450 -640 13 -48 14 -176 2 -227 -5 -21 -5 -38 -1 -38 14 0
        99 102 131 157 48 83 70 160 76 264 7 120 -7 203 -59 334 -51 132 -118 242
        -279 460 -169 230 -233 327 -292 445 -55 110 -78 195 -80 291 -1 38 -2 69 -3
        69 0 0 -28 -28 -61 -62z"/>
        <!-- Other paths -->
    </g>
</svg>
